<svg height="512" viewBox="0 0 512 512" width="512" xmlns="http://www.w3.org/2000/svg"><g id="filled_outline" data-name="filled outline"><path d="m256 24c-128.13 0-232 103.87-232 232s103.87 232 232 232 232-103.87 232-232-103.87-232-232-232zm32 264h-64v-64h64z" fill="#da922a"/><path d="m256 80a176 176 0 1 0 176 176 176 176 0 0 0 -176-176zm32 208h-64v-64h64z" fill="#fbb540"/><g fill="#ea9d2d"><path d="m192 192v128h128v-128zm96 96h-64v-64h64z"/><path d="m240 120h32v32h-32z"/><path d="m240 360h32v32h-32z"/><path d="m120 240h32v32h-32z"/><path d="m360 240h32v32h-32z"/></g><path d="m256 16a240 240 0 0 0 -169.7 409.705 240 240 0 1 0 339.405-339.405 238.427 238.427 0 0 0 -169.705-70.3zm158.392 398.392a224 224 0 0 1 -316.784-316.784 224 224 0 0 1 316.784 316.784z"/><path d="m256 72c-101.458 0-184 82.542-184 184s82.542 184 184 184 184-82.542 184-184-82.542-184-184-184zm0 352c-92.636 0-168-75.364-168-168s75.364-168 168-168 168 75.364 168 168-75.364 168-168 168z"/><path d="m320 184h-128a8 8 0 0 0 -8 8v128a8 8 0 0 0 8 8h128a8 8 0 0 0 8-8v-128a8 8 0 0 0 -8-8zm-8 128h-112v-112h112z"/><path d="m224 296h64a8 8 0 0 0 8-8v-64a8 8 0 0 0 -8-8h-64a8 8 0 0 0 -8 8v64a8 8 0 0 0 8 8zm8-64h48v48h-48z"/><path d="m240 120h32v32h-32z"/><path d="m240 360h32v32h-32z"/><path d="m120 240h32v32h-32z"/><path d="m360 240h32v32h-32z"/></g></svg>