<svg height="368pt" viewBox="0 0 368 368" width="368pt" xmlns="http://www.w3.org/2000/svg"><path d="m159.527344 69.3125c-1.128906-3.183594-4.144532-5.3125-7.527344-5.3125s-6.398438 2.128906-7.527344 5.3125l-80 224c-1.496094 4.160156.679688 8.734375 4.839844 10.222656 4.136719 1.480469 8.734375-.6875 10.214844-4.839844l20.96875-58.695312h103.015625l20.960937 58.6875c1.160156 3.273438 4.238282 5.3125 7.527344 5.3125.886719 0 1.808594-.152344 2.6875-.472656 4.167969-1.488282 6.335938-6.0625 4.839844-10.222656zm-53.320313 154.6875 45.792969-128.214844 45.792969 128.214844zm0 0"/><path d="m280 176c-4.425781 0-8 3.585938-8 8v112c0 4.414062 3.574219 8 8 8s8-3.585938 8-8v-112c0-4.414062-3.574219-8-8-8zm0 0"/><path d="m280 96c-13.230469 0-24 10.769531-24 24s10.769531 24 24 24 24-10.769531 24-24-10.769531-24-24-24zm0 32c-4.414062 0-8-3.59375-8-8s3.585938-8 8-8 8 3.59375 8 8-3.585938 8-8 8zm0 0"/><path d="m344 0h-320c-13.230469 0-24 10.769531-24 24v320c0 13.230469 10.769531 24 24 24h320c13.230469 0 24-10.769531 24-24v-320c0-13.230469-10.769531-24-24-24zm8 344c0 4.40625-3.585938 8-8 8h-320c-4.414062 0-8-3.59375-8-8v-320c0-4.40625 3.585938-8 8-8h320c4.414062 0 8 3.59375 8 8zm0 0"/></svg>